<mxfile host="app.diagrams.net" agent="Mozilla/5.0 (Windows NT 10.0; Win64; x64) AppleWebKit/537.36 (KHTML, like Gecko) Chrome/127.0.0.0 Safari/537.36" version="24.7.6">
  <diagram name="페이지-1" id="h20hH15F6mCY18fGTwxJ">
    <mxGraphModel dx="1332" dy="724" grid="1" gridSize="10" guides="1" tooltips="1" connect="1" arrows="1" fold="1" page="1" pageScale="1" pageWidth="827" pageHeight="1169" math="0" shadow="0">
      <root>
        <mxCell id="0" />
        <mxCell id="1" parent="0" />
        <mxCell id="xbsiPzTI624FHDx4ZhOi-20" value="" style="rounded=0;whiteSpace=wrap;html=1;" vertex="1" parent="1">
          <mxGeometry x="340" y="190" width="120" height="60" as="geometry" />
        </mxCell>
        <mxCell id="xbsiPzTI624FHDx4ZhOi-14" value="" style="rounded=0;whiteSpace=wrap;html=1;" vertex="1" parent="1">
          <mxGeometry x="-25" y="175" width="120" height="60" as="geometry" />
        </mxCell>
        <mxCell id="xbsiPzTI624FHDx4ZhOi-13" value="" style="rounded=0;whiteSpace=wrap;html=1;" vertex="1" parent="1">
          <mxGeometry x="-190" y="180" width="120" height="60" as="geometry" />
        </mxCell>
        <mxCell id="xbsiPzTI624FHDx4ZhOi-1" value="&lt;font style=&quot;font-size: 18px;&quot;&gt;참가자가&amp;nbsp;&lt;/font&gt;&lt;div&gt;&lt;font style=&quot;font-size: 18px;&quot;&gt;몇명인지 확인&lt;/font&gt;&lt;/div&gt;" style="rounded=0;whiteSpace=wrap;html=1;" vertex="1" parent="1">
          <mxGeometry x="-130" y="10" width="140" height="60" as="geometry" />
        </mxCell>
        <mxCell id="xbsiPzTI624FHDx4ZhOi-2" value="" style="endArrow=classic;html=1;rounded=0;" edge="1" parent="1">
          <mxGeometry width="50" height="50" relative="1" as="geometry">
            <mxPoint x="-60" y="80" as="sourcePoint" />
            <mxPoint x="-130" y="180" as="targetPoint" />
            <Array as="points">
              <mxPoint x="-60" y="130" />
            </Array>
          </mxGeometry>
        </mxCell>
        <mxCell id="xbsiPzTI624FHDx4ZhOi-3" value="입력 값을 받음" style="rounded=0;whiteSpace=wrap;html=1;" vertex="1" parent="1">
          <mxGeometry x="-190" y="320" width="120" height="60" as="geometry" />
        </mxCell>
        <mxCell id="xbsiPzTI624FHDx4ZhOi-4" value="혼자서는 할 수 없어요 팝업 생성" style="rounded=0;whiteSpace=wrap;html=1;" vertex="1" parent="1">
          <mxGeometry x="-20" y="320" width="120" height="60" as="geometry" />
        </mxCell>
        <mxCell id="xbsiPzTI624FHDx4ZhOi-5" value="" style="endArrow=classic;html=1;rounded=0;" edge="1" parent="1">
          <mxGeometry width="50" height="50" relative="1" as="geometry">
            <mxPoint x="-60" y="80" as="sourcePoint" />
            <mxPoint y="180" as="targetPoint" />
            <Array as="points">
              <mxPoint x="-60" y="130" />
            </Array>
          </mxGeometry>
        </mxCell>
        <mxCell id="xbsiPzTI624FHDx4ZhOi-6" value="2명 미만" style="text;html=1;align=center;verticalAlign=middle;resizable=0;points=[];autosize=1;strokeColor=none;fillColor=none;" vertex="1" parent="1">
          <mxGeometry x="-5" y="190" width="70" height="30" as="geometry" />
        </mxCell>
        <mxCell id="xbsiPzTI624FHDx4ZhOi-7" value="2명 이상" style="text;html=1;align=center;verticalAlign=middle;resizable=0;points=[];autosize=1;strokeColor=none;fillColor=none;" vertex="1" parent="1">
          <mxGeometry x="-165" y="190" width="70" height="30" as="geometry" />
        </mxCell>
        <mxCell id="xbsiPzTI624FHDx4ZhOi-8" value="입력 값이&amp;nbsp;&lt;br&gt;1. 세글자가 맞는지&lt;div&gt;확인&lt;/div&gt;" style="rounded=0;whiteSpace=wrap;html=1;" vertex="1" parent="1">
          <mxGeometry x="415" y="10" width="140" height="70" as="geometry" />
        </mxCell>
        <mxCell id="xbsiPzTI624FHDx4ZhOi-9" value="" style="endArrow=classic;html=1;rounded=0;" edge="1" parent="1">
          <mxGeometry width="50" height="50" relative="1" as="geometry">
            <mxPoint x="485" y="85" as="sourcePoint" />
            <mxPoint x="415" y="185" as="targetPoint" />
            <Array as="points">
              <mxPoint x="485" y="135" />
            </Array>
          </mxGeometry>
        </mxCell>
        <mxCell id="xbsiPzTI624FHDx4ZhOi-10" value="" style="endArrow=classic;html=1;rounded=0;" edge="1" parent="1">
          <mxGeometry width="50" height="50" relative="1" as="geometry">
            <mxPoint x="485" y="85" as="sourcePoint" />
            <mxPoint x="545" y="185" as="targetPoint" />
            <Array as="points">
              <mxPoint x="485" y="135" />
            </Array>
          </mxGeometry>
        </mxCell>
        <mxCell id="xbsiPzTI624FHDx4ZhOi-11" value="기준 충족" style="text;html=1;align=center;verticalAlign=middle;resizable=0;points=[];autosize=1;strokeColor=none;fillColor=none;" vertex="1" parent="1">
          <mxGeometry x="365" y="205" width="70" height="30" as="geometry" />
        </mxCell>
        <mxCell id="xbsiPzTI624FHDx4ZhOi-15" value="" style="endArrow=classic;html=1;rounded=0;" edge="1" parent="1">
          <mxGeometry width="50" height="50" relative="1" as="geometry">
            <mxPoint x="-130" y="250" as="sourcePoint" />
            <mxPoint x="-130" y="300" as="targetPoint" />
          </mxGeometry>
        </mxCell>
        <mxCell id="xbsiPzTI624FHDx4ZhOi-16" value="" style="endArrow=classic;html=1;rounded=0;" edge="1" parent="1">
          <mxGeometry width="50" height="50" relative="1" as="geometry">
            <mxPoint x="39.5" y="240" as="sourcePoint" />
            <mxPoint x="39.5" y="290" as="targetPoint" />
          </mxGeometry>
        </mxCell>
        <mxCell id="xbsiPzTI624FHDx4ZhOi-17" value="" style="endArrow=classic;html=1;rounded=0;" edge="1" parent="1">
          <mxGeometry width="50" height="50" relative="1" as="geometry">
            <mxPoint x="39.5" y="390" as="sourcePoint" />
            <mxPoint x="39.5" y="440" as="targetPoint" />
          </mxGeometry>
        </mxCell>
        <mxCell id="xbsiPzTI624FHDx4ZhOi-18" value="참가자가 몇명인지 확인하기 2" style="rounded=0;whiteSpace=wrap;html=1;" vertex="1" parent="1">
          <mxGeometry x="-15" y="440" width="110" height="60" as="geometry" />
        </mxCell>
        <mxCell id="xbsiPzTI624FHDx4ZhOi-19" value="세글자가 아닙니다 팝업 생성" style="rounded=0;whiteSpace=wrap;html=1;" vertex="1" parent="1">
          <mxGeometry x="505" y="190" width="110" height="60" as="geometry" />
        </mxCell>
        <mxCell id="xbsiPzTI624FHDx4ZhOi-21" value="&lt;br&gt;&lt;br class=&quot;Apple-interchange-newline&quot;&gt;&lt;span style=&quot;color: rgb(0, 0, 0); font-family: Helvetica; font-size: 12px; font-style: normal; font-variant-ligatures: normal; font-variant-caps: normal; font-weight: 400; letter-spacing: normal; orphans: 2; text-align: center; text-indent: 0px; text-transform: none; widows: 2; word-spacing: 0px; -webkit-text-stroke-width: 0px; white-space: normal; background-color: rgb(251, 251, 251); text-decoration-thickness: initial; text-decoration-style: initial; text-decoration-color: initial; display: inline !important; float: none;&quot;&gt;2. 기준 단어가 없거나 첫글자가 기준 단어의 맨 앞글자가 맞는지 확인&lt;/span&gt;&lt;div&gt;&lt;br&gt;&lt;/div&gt;" style="rounded=0;whiteSpace=wrap;html=1;" vertex="1" parent="1">
          <mxGeometry x="330" y="310" width="140" height="60" as="geometry" />
        </mxCell>
        <mxCell id="xbsiPzTI624FHDx4ZhOi-22" value="" style="endArrow=classic;html=1;rounded=0;" edge="1" parent="1">
          <mxGeometry width="50" height="50" relative="1" as="geometry">
            <mxPoint x="415" y="250" as="sourcePoint" />
            <mxPoint x="415" y="300" as="targetPoint" />
          </mxGeometry>
        </mxCell>
        <mxCell id="xbsiPzTI624FHDx4ZhOi-24" value="" style="endArrow=classic;html=1;rounded=0;" edge="1" parent="1">
          <mxGeometry width="50" height="50" relative="1" as="geometry">
            <mxPoint x="410" y="380" as="sourcePoint" />
            <mxPoint x="340" y="480" as="targetPoint" />
            <Array as="points">
              <mxPoint x="410" y="430" />
            </Array>
          </mxGeometry>
        </mxCell>
        <mxCell id="xbsiPzTI624FHDx4ZhOi-25" value="" style="endArrow=classic;html=1;rounded=0;" edge="1" parent="1">
          <mxGeometry width="50" height="50" relative="1" as="geometry">
            <mxPoint x="410" y="380" as="sourcePoint" />
            <mxPoint x="470" y="480" as="targetPoint" />
            <Array as="points">
              <mxPoint x="410" y="430" />
            </Array>
          </mxGeometry>
        </mxCell>
        <mxCell id="xbsiPzTI624FHDx4ZhOi-26" value="" style="rounded=0;whiteSpace=wrap;html=1;" vertex="1" parent="1">
          <mxGeometry x="262.5" y="490" width="120" height="60" as="geometry" />
        </mxCell>
        <mxCell id="xbsiPzTI624FHDx4ZhOi-27" value="&lt;div&gt;&lt;div&gt;현재 단어를&amp;nbsp;&lt;/div&gt;&lt;div&gt;기준 단어로 바꾸고&amp;nbsp;&lt;/div&gt;&lt;div&gt;순서 넘어가기&lt;/div&gt;&lt;/div&gt;" style="text;html=1;align=center;verticalAlign=middle;resizable=0;points=[];autosize=1;strokeColor=none;fillColor=none;" vertex="1" parent="1">
          <mxGeometry x="257.5" y="490" width="130" height="60" as="geometry" />
        </mxCell>
        <mxCell id="xbsiPzTI624FHDx4ZhOi-28" value="쿵쿵따 그렇게 하는거 아닌데...팝업 생성" style="rounded=0;whiteSpace=wrap;html=1;" vertex="1" parent="1">
          <mxGeometry x="427.5" y="490" width="122.5" height="60" as="geometry" />
        </mxCell>
        <mxCell id="xbsiPzTI624FHDx4ZhOi-33" value="" style="endArrow=classic;html=1;rounded=0;" edge="1" parent="1">
          <mxGeometry width="50" height="50" relative="1" as="geometry">
            <mxPoint x="484.5" y="560" as="sourcePoint" />
            <mxPoint x="390" y="650" as="targetPoint" />
          </mxGeometry>
        </mxCell>
        <mxCell id="xbsiPzTI624FHDx4ZhOi-36" value="&lt;span style=&quot;text-wrap: nowrap;&quot;&gt;입력창을 비우고&amp;nbsp;&lt;/span&gt;&lt;div style=&quot;text-wrap: nowrap;&quot;&gt;커서를 포커스 하기&lt;/div&gt;" style="rounded=0;whiteSpace=wrap;html=1;" vertex="1" parent="1">
          <mxGeometry x="262.5" y="620" width="120" height="60" as="geometry" />
        </mxCell>
        <mxCell id="xbsiPzTI624FHDx4ZhOi-37" value="" style="endArrow=classic;html=1;rounded=0;" edge="1" parent="1">
          <mxGeometry width="50" height="50" relative="1" as="geometry">
            <mxPoint x="330" y="560" as="sourcePoint" />
            <mxPoint x="330" y="610" as="targetPoint" />
          </mxGeometry>
        </mxCell>
        <mxCell id="xbsiPzTI624FHDx4ZhOi-38" value="" style="endArrow=classic;html=1;rounded=0;exitX=0.5;exitY=1;exitDx=0;exitDy=0;" edge="1" parent="1" source="xbsiPzTI624FHDx4ZhOi-19">
          <mxGeometry width="50" height="50" relative="1" as="geometry">
            <mxPoint x="590" y="380" as="sourcePoint" />
            <mxPoint x="390" y="660" as="targetPoint" />
            <Array as="points">
              <mxPoint x="560" y="590" />
            </Array>
          </mxGeometry>
        </mxCell>
      </root>
    </mxGraphModel>
  </diagram>
</mxfile>
